<svg width="60" height="60" viewBox="0 0 60 60" fill="none" xmlns="http://www.w3.org/2000/svg">
<rect width="60" height="60" rx="30" fill="#E9E9E4"/>
<g clip-path="url(#clip0_13395_28153)">
<path opacity="0.25" d="M29.2965 23.6965L25.2942 19.7121C25.0128 19.4319 24.919 18.9961 25.0753 18.6226C25.2317 18.249 25.6069 18 26.0133 18H34.0179C34.4244 18 34.7683 18.249 34.9247 18.6226C35.081 18.9961 34.9872 19.4319 34.7058 19.7121L30.7035 23.6965C30.3283 24.1012 29.6717 24.1012 29.2965 23.6965Z" fill="#F44336"/>
<path opacity="0.5" d="M29.2965 32.6965L25.2942 28.7121C25.0128 28.4319 24.919 27.9961 25.0753 27.6226C25.2317 27.249 25.6069 27 26.0133 27H34.0179C34.4244 27 34.7683 27.249 34.9247 27.6226C35.081 27.9961 34.9872 28.4319 34.7058 28.7121L30.7035 32.6965C30.3283 33.1012 29.6717 33.1012 29.2965 32.6965Z" fill="#F44336"/>
<path d="M29.2965 41.6965L25.2942 37.7121C25.0128 37.4319 24.919 36.9961 25.0753 36.6226C25.2317 36.249 25.6069 36 26.0133 36H34.0179C34.4244 36 34.7683 36.249 34.9247 36.6226C35.081 36.9961 34.9872 37.4319 34.7058 37.7121L30.7035 41.6965C30.3283 42.1012 29.6717 42.1012 29.2965 41.6965Z" fill="#F44336"/>
</g>
<defs>
<clipPath id="clip0_13395_28153">
<rect x="18" y="18" width="24" height="24" rx="8" fill="white"/>
</clipPath>
</defs>
</svg>
