<svg width="60" height="60" viewBox="0 0 60 60" fill="none" xmlns="http://www.w3.org/2000/svg">
<rect width="60" height="60" rx="30" fill="#E9E9E4"/>
<g clip-path="url(#clip0_13294_39130)">
<path opacity="0.25" d="M30.7035 36.3035L34.7058 40.2879C34.9872 40.5681 35.081 41.0039 34.9247 41.3774C34.7683 41.751 34.3931 42 33.9867 42L25.9821 42C25.5756 42 25.2317 41.751 25.0753 41.3774C24.919 41.0039 25.0128 40.5681 25.2942 40.2879L29.2965 36.3035C29.6717 35.8988 30.3283 35.8988 30.7035 36.3035Z" fill="#44C26D"/>
<path opacity="0.5" d="M30.7035 27.3035L34.7058 31.2879C34.9872 31.5681 35.081 32.0039 34.9247 32.3774C34.7683 32.751 34.3931 33 33.9867 33L25.9821 33C25.5756 33 25.2317 32.751 25.0753 32.3774C24.919 32.0039 25.0128 31.5681 25.2942 31.2879L29.2965 27.3035C29.6717 26.8988 30.3283 26.8988 30.7035 27.3035Z" fill="#44C26D"/>
<path d="M30.7035 18.3035L34.7058 22.2879C34.9872 22.5681 35.081 23.0039 34.9247 23.3774C34.7683 23.751 34.3931 24 33.9867 24L25.9821 24C25.5756 24 25.2317 23.751 25.0753 23.3774C24.919 23.0039 25.0128 22.5681 25.2942 22.2879L29.2965 18.3035C29.6717 17.8988 30.3283 17.8988 30.7035 18.3035Z" fill="#44C26D"/>
</g>
<defs>
<clipPath id="clip0_13294_39130">
<rect x="42" y="42" width="24" height="24" rx="8" transform="rotate(-180 42 42)" fill="white"/>
</clipPath>
</defs>
</svg>
